<svg height='100px' width='100px' fill="#2B3044" xmlns="http://www.w3.org/2000/svg"
     xmlns:xlink="http://www.w3.org/1999/xlink" version="1.1" x="0px" y="0px" viewBox="0 0 100 100"
     enable-background="new 0 0 100 100" xml:space="preserve"><g><path d="M78.754,4.033H21.83c-4.714,0-8.55,3.835-8.55,8.55v75.473c0,4.715,3.836,8.551,8.55,8.551h56.924   c4.715,0,8.551-3.836,8.551-8.551V12.583C87.305,7.869,83.469,4.033,78.754,4.033z M21.83,8.533h56.924   c2.234,0,4.051,1.817,4.051,4.05v59.949H17.779V12.583C17.779,10.35,19.596,8.533,21.83,8.533z M78.754,92.107H21.83   c-2.233,0-4.05-1.816-4.05-4.051V77.032h65.025v11.024C82.805,90.291,80.988,92.107,78.754,92.107z"></path><path
        d="M27.229,53.633h45.675c0.744,0,1.35-0.606,1.35-1.351v-33.75c0-0.745-0.605-1.35-1.35-1.35H27.229   c-0.745,0-1.35,0.605-1.35,1.35v33.75C25.879,53.026,26.485,53.633,27.229,53.633z"></path><path
        d="M72.904,62.07H59.629c-1.242,0-1.35,1.006-1.35,2.25c0,1.242,0.107,2.25,1.35,2.25h13.275c1.243,0,1.35-1.008,1.35-2.25   C74.254,63.076,74.147,62.07,72.904,62.07z"></path></g></svg>