<svg width="582" height="342" viewBox="0 0 582 342" fill="none" xmlns="http://www.w3.org/2000/svg">
    <path d="M3.40112 301.331C20.9936 232.9 8.814 216.637 61.5923 146.85C114.371 77.0615 274.733 108.906 335.633 64.8654C396.528 20.8244 495.321 -38.1224 556.895 33.6979C618.469 105.519 548.204 302.495 500.836 309.949C453.473 317.401 3.40112 301.331 3.40112 301.331Z" fill="#D7F2FF"/>
    <path d="M255.678 105.46C255.678 105.46 223.957 117.22 220.32 119.076C216.678 120.934 216.678 141.566 214.471 158.514C212.262 175.461 210.056 207.882 210.793 207.882C211.527 207.882 245.378 231.461 249.791 230.725C254.207 229.989 272.604 231.461 282.17 230.725C291.735 229.989 306.452 228.514 313.811 227.778C321.168 227.04 343.116 218.852 343.55 215.208C343.98 211.568 344.718 204.936 343.246 190.936C341.774 176.935 340.302 127.565 340.302 127.565L299.829 103.989L290.998 98.0932C290.998 98.0932 290.489 97.8151 286.697 98.6911C282.907 99.5671 255.678 105.46 255.678 105.46" fill="url(#paint0_linear_41_39)"/>
    <path d="M519.85 303.019C519.85 324.132 403.556 341.252 260.095 341.252C116.636 341.252 0.3396 324.132 0.3396 303.019C0.3396 281.903 116.636 264.783 260.095 264.783C403.556 264.783 519.85 281.903 519.85 303.019" fill="#4AA3FB"/>
    <path d="M386.625 290.553C386.625 299.487 337.415 306.731 276.709 306.731C216.001 306.731 166.79 299.487 166.79 290.553C166.79 281.616 216.001 274.374 276.709 274.374C337.415 274.374 386.625 281.616 386.625 290.553Z" fill="#0984D8"/>
    <path d="M188.616 253.397C188.308 254.016 190.474 268.273 218.643 294.001C246.81 319.726 253.62 280.673 251.763 279.122C249.906 277.573 246.499 265.173 235.046 263.316C223.594 261.456 223.285 259.596 213.69 257.736C204.095 255.876 188.616 253.397 188.616 253.397" fill="#002877"/>
    <path d="M373.436 253.396C373.747 254.016 371.578 268.273 343.413 294.001C315.246 319.726 308.435 280.673 310.293 279.122C312.149 277.573 315.554 265.173 327.006 263.316C338.458 261.456 338.769 259.596 348.366 257.736C357.96 255.876 373.436 253.396 373.436 253.396" fill="#002877"/>
    <path d="M241.038 286.991C241.038 286.991 233.722 288.942 225.337 291.882C217.456 294.643 211.709 300.84 208.719 304.721C207.141 306.768 206.25 309.256 206.129 311.839C205.796 318.933 205.863 333.4 212.163 330.789C220.453 327.353 236.748 316.475 244.18 314.472C251.615 312.467 255.33 311.036 255.33 310.177C255.33 309.317 257.046 305.311 256.188 299.872C255.33 294.433 254.474 290.138 253.043 289.854C251.615 289.567 241.038 286.991 241.038 286.991" fill="#F9D9DB"/>
    <path d="M243.714 291.521C245.88 291.21 278.381 289.35 279 289.97C279.619 290.59 294.786 290.901 295.097 292.141C295.406 293.381 293.548 298.34 293.548 299.269C293.548 300.198 252.071 316.317 252.071 316.317C252.071 316.317 248.048 316.006 248.356 315.077C248.667 314.146 243.714 291.521 243.714 291.521Z" fill="#002F9B"/>
    <path d="M206.26 218.683L231.023 237.9L237.523 218.683L218.951 207.524L206.26 218.683Z" fill="#FFE0CF"/>
    <path d="M293.158 101.482C293.432 101.072 295.82 98.7968 297.204 97.4902C296.326 96.0897 295.531 94.5138 294.836 92.9478L292.446 101.259L293.158 101.482Z" fill="#F9D3C0"/>
    <path d="M301.303 105.461C301.303 105.461 297.51 95.3979 296.888 94.4074C295.608 95.6152 292.265 102.847 292.009 103.223L291.353 103.02L293.56 95.346C291.74 91.2532 290.657 87.2395 290.657 87.2395L270.371 84.0927L263.511 92.6759L257.226 107.266C257.226 107.266 255.68 124.618 279.227 124.618C300.581 124.618 301.303 105.461 301.303 105.461" fill="#F2AAAA"/>
    <path d="M338.121 211.863C337.501 212.483 326.979 218.683 326.979 218.683L328.526 235.108C328.526 235.108 337.812 235.729 339.978 235.108C342.145 234.488 347.408 223.64 347.408 223.64L346.171 216.823L338.121 211.863Z" fill="#FFE0CF"/>
    <path d="M229.476 187.996C229.476 187.996 228.238 156.071 228.857 142.434C229.476 128.797 222.182 118.068 222.182 118.068C219.425 119.527 217.261 120.785 216.785 121.358C215.236 123.218 200.688 144.294 196.665 167.539C196.665 167.539 191.712 192.956 190.474 200.084C189.235 207.215 186.45 214.343 191.712 223.64C196.976 232.94 203.784 230.46 203.784 230.46C203.784 230.46 209.356 224.88 209.356 224.26C209.356 223.64 211.832 213.723 222.974 212.483C224.425 212.323 226.77 212.182 229.755 212.059C230.169 206.797 229.476 187.996 229.476 187.996" fill="url(#paint1_linear_41_39)"/>
    <path d="M350.506 145.534C347.852 140.813 346.04 132.17 340.007 127.338L331.313 187.377L328.471 214.31C333.702 215.36 339.677 217.872 344.315 223.64C344.315 223.64 358.861 226.119 359.789 226.431C360.433 226.645 363.313 221.938 365.017 219.033C365.844 217.623 366.122 215.96 365.803 214.357C363.42 202.298 352.968 149.918 350.506 145.534" fill="url(#paint2_linear_41_39)"/>
    <path d="M290.144 111.537C290.193 111.46 290.248 111.374 290.3 111.29C290.018 111.658 289.74 112.021 289.466 112.379C289.725 112.115 289.957 111.836 290.144 111.537Z" fill="#F9D9DB"/>
    <path d="M316.341 290.499C316.341 290.499 353.267 305.353 358.698 307.356C364.132 309.359 366.084 313.4 359.225 326.568C352.363 339.735 316.341 317.123 315.2 316.55C314.056 315.977 311.197 316.263 310.91 314.833C310.626 313.4 309.536 308.248 310.511 305.385C311.483 302.522 316.341 290.499 316.341 290.499Z" fill="#F9D9DB"/>
    <path d="M326.979 243.788C326.979 243.788 322.025 233.56 315.836 232.631C309.644 231.7 311.811 231.7 289.833 229.531C267.858 227.36 245.26 224.26 240.311 224.88C235.357 225.5 229.785 226.431 229.785 228.6C229.785 230.771 227.927 233.869 229.165 239.14C230.403 244.408 233.188 253.088 238.762 256.496C244.333 259.905 245.88 260.836 249.594 263.316C253.31 265.793 257.023 267.033 262.904 267.653C268.784 268.273 266.309 267.033 275.288 267.653C284.264 268.273 301.596 262.696 304.072 261.456C306.55 260.216 326.979 243.788 326.979 243.788" fill="#002F9B"/>
    <path d="M275.286 264.245C275.286 264.245 337.501 223.641 342.454 223.641C347.407 223.641 361.336 221.472 370.001 232.94C378.669 244.409 375.883 265.794 354.213 274.473C332.548 283.153 307.475 292.141 307.475 292.141L280.857 289.35L275.286 264.245" fill="#07348E"/>
    <path d="M227.784 235.385C227.784 235.385 200.999 208.144 185.831 221.16C170.664 234.18 168.187 254.325 223.594 281.293C279 308.258 309.335 323.446 309.335 323.446C309.335 323.446 318.003 309.189 316.765 297.101C316.765 297.101 315.835 290.59 320.477 290.281C320.477 290.281 299.74 276.953 292.31 271.684C284.883 266.413 227.784 235.385 227.784 235.385" fill="#002F9B"/>
    <path d="M245.835 292.141C245.835 292.141 254.548 304.538 252.071 316.317H245.88C245.88 316.317 242.972 295.134 238.019 288.935L241.548 290.044L245.835 292.141" fill="white"/>
    <path d="M321.696 289.673C320.01 289.172 317.329 288.25 315.382 286.991C315.382 286.991 305.59 321.578 306.532 322.047C306.695 322.126 308.901 323.524 310.749 324.391C311.689 324.831 312.806 324.384 313.186 323.416C315.542 317.433 321.33 298.839 322.939 291.802C323.151 290.873 322.606 289.945 321.696 289.673" fill="white"/>
    <path d="M219.677 179.581L221.825 235.539C221.947 238.762 224.592 241.309 227.811 241.309H325.736C328.877 241.309 331.486 238.878 331.712 235.741L335.749 179.667C335.861 178.14 334.652 176.839 333.12 176.839H222.311C220.812 176.839 219.616 178.084 219.677 179.581" fill="#F4F4F4"/>
    <path d="M286.839 209.435C286.839 213.866 283.25 217.46 278.825 217.46C274.397 217.46 270.808 213.866 270.808 209.435C270.808 205.002 274.397 201.41 278.825 201.41C283.25 201.41 286.839 205.002 286.839 209.435Z" fill="#B3B3B3"/>
    <path d="M151.801 141.337H129.763C115.893 141.337 104.545 129.975 104.545 116.087V94.0171C104.545 80.1283 115.893 68.7663 129.763 68.7663H151.801C165.671 68.7663 177.018 80.1283 177.018 94.0171V116.087C177.018 129.975 165.671 141.337 151.801 141.337Z" fill="white"/>
    <path d="M140.782 71.9626C122.561 71.9626 107.738 86.8073 107.738 105.051C107.738 123.297 122.561 138.141 140.782 138.141C159.002 138.141 173.826 123.297 173.826 105.051C173.826 86.8073 159.002 71.9626 140.782 71.9626ZM140.782 144.536C119.04 144.536 101.351 126.824 101.351 105.051C101.351 83.2801 119.04 65.5677 140.782 65.5677C162.524 65.5677 180.212 83.2801 180.212 105.051C180.212 126.824 162.524 144.536 140.782 144.536Z" fill="#4AA3FB"/>
    <path d="M143.394 114.133H121.847C120.083 114.133 118.654 112.703 118.654 110.937C118.654 109.171 120.083 107.738 121.847 107.738H140.2V86.0909C140.2 84.3248 141.63 82.8947 143.394 82.8947C145.157 82.8947 146.587 84.3248 146.587 86.0909V110.937C146.587 112.703 145.157 114.133 143.394 114.133Z" fill="#4AA3FB"/>
    <path d="M258.822 99.5649L249.962 106.535C251.79 115.536 256.269 123.783 262.823 130.208L263.884 131.25L274.644 124.28L274.353 124.03C266.864 117.603 261.457 109.084 258.822 99.5649Z" fill="#F4F4F4"/>
    <path d="M300.369 99.5649L309.229 106.535C307.401 115.536 302.922 123.783 296.368 130.208L295.304 131.25L284.547 124.28L284.836 124.03C292.327 117.603 297.734 109.084 300.369 99.5649" fill="#F4F4F4"/>
    <path d="M107.038 297.409C107.038 300.46 96.9896 302.935 84.5943 302.935C72.1991 302.935 62.1509 300.46 62.1509 297.409C62.1509 294.357 72.1991 291.882 84.5943 291.882C96.9896 291.882 107.038 294.357 107.038 297.409Z" fill="#0984D8"/>
    <path d="M73.5527 298.783C80.4697 300.9 87.8609 300.9 94.7779 298.783C97.2946 298.012 99.1624 295.885 99.6064 293.289L106.241 269.943H62.0896L68.7242 293.289C69.1682 295.885 71.036 298.012 73.5527 298.783Z" fill="url(#paint3_linear_41_39)"/>
    <path d="M62.0896 268.997C62.0896 272.591 71.9733 275.505 84.1653 275.505C96.3573 275.505 106.241 272.591 106.241 268.997C106.241 265.403 96.3573 262.489 84.1653 262.489C71.9733 262.489 62.0896 265.403 62.0896 268.997Z" fill="url(#paint4_linear_41_39)"/>
    <path d="M69.0249 268.997C69.0249 271.462 75.8033 273.46 84.165 273.46C92.5268 273.46 99.3052 271.462 99.3052 268.997C99.3052 266.532 92.5268 264.534 84.165 264.534C75.8033 264.534 69.0249 266.532 69.0249 268.997Z" fill="white"/>
    <path d="M66.5668 188.695C65.7223 186.002 61.9187 185.842 60.9229 188.48C52.7207 210.216 58.5179 208.181 59.2292 219.34C62.1582 265.287 79.7312 267.243 85.5888 268.547C85.5888 268.547 83.9618 248.669 76.8023 237.591C69.643 226.51 70.9368 223.796 69.643 206.306C69.0486 198.268 67.775 192.543 66.5668 188.695" fill="#00A99D"/>
    <path d="M102.936 188.695C103.781 186.002 107.584 185.842 108.58 188.48C116.782 210.216 110.985 208.181 110.274 219.34C107.345 265.287 89.7717 267.243 83.9138 268.547C83.9138 268.547 85.5411 248.669 92.7006 237.591C99.8598 226.51 98.5661 223.796 99.8598 206.306C100.455 198.268 101.728 192.543 102.936 188.695" fill="#00A99D"/>
    <path d="M79.7462 188.579C80.5859 186.904 82.278 185.755 84.149 185.78C86.4916 185.81 89.1687 187.529 89.1687 195.228C89.1687 208.914 89.1687 257.793 89.1687 257.793C89.1687 257.793 83.3111 263.659 82.0092 262.355C80.7332 261.078 64.4462 219.091 79.7462 188.579Z" fill="#00A99D"/>
    <path d="M451.419 309.198C451.419 312.249 442.851 314.724 432.284 314.724C421.718 314.724 413.154 312.249 413.154 309.198C413.154 306.145 421.718 303.67 432.284 303.67C442.851 303.67 451.419 306.145 451.419 309.198Z" fill="#0984D8"/>
    <path d="M448.859 295.549C446.955 295.549 445.044 295.149 443.23 294.342L442.482 294.008C440.904 293.307 440.192 291.457 440.894 289.873C441.595 288.292 443.442 287.579 445.021 288.282L445.772 288.616C447.988 289.601 450.471 289.48 452.581 288.28C454.691 287.08 456.067 285.007 456.359 282.597C456.499 281.458 456.007 280.403 455.053 279.773C454.096 279.146 452.936 279.114 451.949 279.689C450.454 280.559 448.537 280.05 447.669 278.553C446.802 277.059 447.307 275.14 448.802 274.27C451.843 272.502 455.555 272.605 458.493 274.539C461.427 276.476 462.992 279.85 462.573 283.345C462.042 287.751 459.526 291.538 455.671 293.729C453.541 294.939 451.205 295.549 448.859 295.549" fill="url(#paint5_linear_41_39)"/>
    <path d="M421.609 310.572C428.526 312.689 435.92 312.689 442.836 310.572C445.352 309.802 447.217 307.675 447.662 305.079L454.297 266.26H410.148L416.783 305.079C417.225 307.675 419.093 309.802 421.609 310.572" fill="url(#paint6_linear_41_39)"/>
    <path d="M410.148 265.312C410.148 268.908 420.029 271.823 432.223 271.823C444.413 271.823 454.297 268.908 454.297 265.312C454.297 261.718 444.413 258.804 432.223 258.804C420.029 258.804 410.148 261.718 410.148 265.312Z" fill="url(#paint7_linear_41_39)"/>
    <path d="M413.339 266.26C413.339 268.788 421.987 270.839 432.656 270.839C443.321 270.839 451.969 268.788 451.969 266.26C451.969 263.73 443.321 261.678 432.656 261.678C421.987 261.678 413.339 263.73 413.339 266.26Z" fill="white"/>
    <path d="M255.31 72.16C255.332 72.7726 255.354 73.4025 255.377 74.0496C256.038 92.5721 268.785 105.666 269.03 106.046C270.865 108.229 274.799 109.571 278.916 109.813C283.556 110.282 285.566 110.776 290.018 106.878C294.394 103.052 304.182 96.7193 307.83 78.2461C309.019 72.2218 309.892 67.6795 310.371 64.1276C311.358 56.7917 310.652 53.7017 307.554 50.5698C303.449 46.4202 289.471 38.857 285.643 37.212L285.672 36.8291C285.226 36.881 284.898 36.9057 284.737 36.8934C284.577 36.8786 284.256 36.802 283.822 36.6809L283.79 37.0638C279.752 38.079 264.75 43.3228 260.039 46.7684C254.942 50.4932 254.715 54.9145 255.31 72.16" fill="#F9D9DB"/>
    <path d="M261.361 53.5413L260.423 65.2812L257.932 79.3899L255.895 80.2148L249.057 48.5791L251.573 47.7837L261.361 53.5413" fill="#002F9B"/>
    <path d="M312.231 44.1676L309.554 68.4748L307.061 82.5835L305.025 83.4084L300.704 50.9774L312.231 44.1676" fill="#002F9B"/>
    <path d="M306.19 45.5151C306.19 45.5151 308.471 55.8177 288.246 54.7438C268.018 53.6674 247.061 56.3187 242.863 40.9492C242.863 40.9492 251.797 39.1957 257.15 34.0296C262.502 28.8659 268.397 21.7354 281.323 24.1114C294.482 26.5296 304.655 33.603 306.19 45.5151Z" fill="#002F9B"/>
    <path d="M302.495 35.9055C307.949 35.241 312.643 39.7512 312.206 45.2371L311.412 55.1863C311.412 55.1863 296.918 51.8098 295.509 50.9576C294.101 50.1055 289.641 50.4883 290.667 46.8747C291.693 43.2611 302.495 35.9055 302.495 35.9055" fill="#002F9B"/>
    <path d="M407.397 63.9973L401.852 94.9954L451.419 63.9973H407.397" fill="url(#paint8_linear_41_39)"/>
    <path d="M469.89 75.9668H356.41C352.777 75.9668 349.809 72.9945 349.809 69.3567V9.27578C349.809 5.63803 352.777 2.66571 356.41 2.66571H469.89C473.523 2.66571 476.491 5.63803 476.491 9.27578V69.3567C476.491 72.9945 473.523 75.9668 469.89 75.9668Z" fill="url(#paint9_linear_41_39)"/>
    <path d="M456.963 26.6521H369.844V18.3812H456.963V26.6521Z" fill="white"/>
    <path d="M444.949 43.1965H369.844V34.9243H444.949V43.1965Z" fill="white"/>
    <path d="M420.166 59.7397H369.845V51.4663H420.166V59.7397Z" fill="white"/>
    <path d="M494.401 193.606H409.012C405.055 193.606 401.85 190.395 401.85 186.433V142.119C401.85 138.158 405.055 134.946 409.012 134.946H494.401C498.355 134.946 501.56 138.158 501.56 142.119V186.433C501.56 190.395 498.355 193.606 494.401 193.606Z" fill="white"/>
    <path d="M476.638 167.823L466.664 182.367L438.621 162.534L405.218 190.762C407.046 192.528 409.476 193.605 412.144 193.605H491.27C494.094 193.605 496.652 192.4 498.509 190.446L476.638 167.823" fill="#008AF3"/>
    <path d="M475.39 151.17C475.39 154.616 472.601 157.41 469.159 157.41C465.717 157.41 462.925 154.616 462.925 151.17C462.925 147.724 465.717 144.929 469.159 144.929C472.601 144.929 475.39 147.724 475.39 151.17Z" fill="#4AA3FB"/>
    <path d="M412.148 137.46C407.855 137.46 404.364 140.955 404.364 145.252V183.297C404.364 187.592 407.855 191.09 412.148 191.09H491.271C495.563 191.09 499.051 187.592 499.051 183.297V145.252C499.051 140.955 495.563 137.46 491.271 137.46H412.148ZM491.271 196.119H412.148C405.086 196.119 399.342 190.369 399.342 183.297V145.252C399.342 138.182 405.086 132.43 412.148 132.43H491.271C498.332 132.43 504.077 138.182 504.077 145.252V183.297C504.077 190.369 498.332 196.119 491.271 196.119Z" fill="#008AF3"/>
    <defs>
        <linearGradient id="paint0_linear_41_39" x1="304.237" y1="106.266" x2="295.007" y2="201.9" gradientUnits="userSpaceOnUse">
            <stop stop-color="#FFD28A"/>
            <stop offset="0.995671" stop-color="#F8AD00"/>
            <stop offset="1" stop-color="#F8AD00"/>
        </linearGradient>
        <linearGradient id="paint1_linear_41_39" x1="188.624" y1="174.413" x2="229.888" y2="174.413" gradientUnits="userSpaceOnUse">
            <stop stop-color="#FFD28A"/>
            <stop offset="0.995671" stop-color="#F8AD00"/>
            <stop offset="1" stop-color="#F8AD00"/>
        </linearGradient>
        <linearGradient id="paint2_linear_41_39" x1="371.917" y1="150.325" x2="413.373" y2="150.325" gradientUnits="userSpaceOnUse">
            <stop stop-color="#FFD28A"/>
            <stop offset="0.995671" stop-color="#F8AD00"/>
            <stop offset="1" stop-color="#F8AD00"/>
        </linearGradient>
        <linearGradient id="paint3_linear_41_39" x1="106.241" y1="285.158" x2="62.0896" y2="285.158" gradientUnits="userSpaceOnUse">
            <stop stop-color="#FFD28A"/>
            <stop offset="0.995671" stop-color="#F8AD00"/>
            <stop offset="1" stop-color="#F8AD00"/>
        </linearGradient>
        <linearGradient id="paint4_linear_41_39" x1="106.241" y1="268.997" x2="62.0896" y2="268.997" gradientUnits="userSpaceOnUse">
            <stop stop-color="#FFD28A"/>
            <stop offset="0.995671" stop-color="#F8AD00"/>
            <stop offset="1" stop-color="#F8AD00"/>
        </linearGradient>
        <linearGradient id="paint5_linear_41_39" x1="650.685" y1="235.079" x2="621.025" y2="235.079" gradientUnits="userSpaceOnUse">
            <stop stop-color="#FFD28A"/>
            <stop offset="0.995671" stop-color="#F8AD00"/>
            <stop offset="1" stop-color="#F8AD00"/>
        </linearGradient>
        <linearGradient id="paint6_linear_41_39" x1="628.362" y1="244.561" x2="569.8" y2="244.561" gradientUnits="userSpaceOnUse">
            <stop stop-color="#FFD28A"/>
            <stop offset="0.995671" stop-color="#F8AD00"/>
            <stop offset="1" stop-color="#F8AD00"/>
        </linearGradient>
        <linearGradient id="paint7_linear_41_39" x1="628.362" y1="212.865" x2="569.8" y2="212.865" gradientUnits="userSpaceOnUse">
            <stop stop-color="#FFD28A"/>
            <stop offset="0.995671" stop-color="#F8AD00"/>
            <stop offset="1" stop-color="#F8AD00"/>
        </linearGradient>
        <linearGradient id="paint8_linear_41_39" x1="555.355" y1="-31.1183" x2="620.741" y2="-31.1183" gradientUnits="userSpaceOnUse">
            <stop stop-color="#FFD28A"/>
            <stop offset="0.995671" stop-color="#F8AD00"/>
            <stop offset="1" stop-color="#F8AD00"/>
        </linearGradient>
        <linearGradient id="paint9_linear_41_39" x1="513.437" y1="-108.238" x2="688.462" y2="-108.238" gradientUnits="userSpaceOnUse">
            <stop stop-color="#FFD28A"/>
            <stop offset="0.995671" stop-color="#F8AD00"/>
            <stop offset="1" stop-color="#F8AD00"/>
        </linearGradient>
    </defs>
</svg>